<?xml version="1.0" encoding="UTF-8"?>
<!-- Generator: visioncortex VTracer 0.6.5 -->
<svg version="1.1" xmlns="http://www.w3.org/2000/svg" width="4500" height="2580">
<path d="M0 0 C0.07 32.64 -0.12 65.29 -0.36 97.93 C-0.39 103.08 -0.43 108.22 -0.47 113.37 C-0.58 129.74 -0.7 146.11 -0.82 162.49 C-0.91 175.2 -1 187.91 -1.09 200.61 C-1.18 213.85 -1.27 227.09 -1.37 240.33 C-1.42 247.69 -1.47 255.04 -1.52 262.4 C-1.82 304.94 -2.34 347.47 -3 390 C-5.93 390.54 -8.85 391.08 -11.78 391.61 C-12.6 391.77 -13.42 391.92 -14.27 392.07 C-97.86 407.44 -182.28 417.39 -322.57 427.91 C-323.07 427.94 -323.07 427.94 -325.61 428.09 C-379.84 431.25 -434.01 432.34 -488.31 432.26 C-493.85 432.25 -499.39 432.25 -504.93 432.26 C-546 432.32 -586.96 431.8 -628 430 C-628.92 429.96 -629.84 429.92 -630.79 429.88 C-641.19 429.42 -651.6 428.9 -662 428.31 C-664.22 428.18 -666.45 428.06 -668.68 427.93 C-749.53 423.38 -830.15 415.65 -1321 327 C-1322.09 326.73 -1323.17 326.46 -1324.29 326.19 C-1390.52 309.77 -1456.15 291.09 -1521.85 272.68 C-1618.24 245.68 -1714.68 219.93 -2512.38 120.31 C-2513.24 120.28 -2514.1 120.25 -2514.98 120.22 C-2526.8 119.8 -2538.61 119.41 -2550.43 119.07 C-2552.13 119.02 -2553.84 118.98 -2555.54 118.92 C-2595.43 117.75 -2635.32 117.8 -2675.21 117.81 C-2677.89 117.81 -2680.58 117.81 -2683.26 117.81 C-2734.43 117.82 -2785.58 117.92 -2836.73 119.84 C-2841.14 120.01 -2845.55 120.16 -2849.96 120.31 C-2934.82 123.22 -3019.61 128.31 -3369.18 166.18 C-3373.16 166.74 -3377.15 167.29 -3381.13 167.85 C-3383.86 168.23 -3386.59 168.61 -3389.33 169 C-3397.36 170.12 -3405.39 171.2 -3413.44 172.17 C-3414.13 172.26 -3414.82 172.34 -3415.54 172.43 C-3419.08 172.85 -3422.41 173 -3426 173 C-3425.84 167.88 -3425.84 167.88 -3425 142 C-3410.37 138.62 -3410.37 138.62 -3404.49 137.52 C-3403.83 137.4 -3403.18 137.27 -3402.51 137.15 C-3400.37 136.75 -3398.24 136.35 -3396.11 135.95 C-3394.55 135.66 -3393 135.37 -3391.44 135.08 C-3386.36 134.13 -3381.27 133.19 -3376.19 132.25 C-3375.75 132.17 -3375.75 132.17 -3373.52 131.76 C-3280.93 114.62 -3187.99 99.75 -2963.75 69.34 C-2961.03 69 -2958.31 68.67 -2955.6 68.33 C-2862.16 56.82 -2768.53 46.79 -2347 19 C-2346.15 18.97 -2345.3 18.95 -2344.43 18.92 C-2294.16 17.35 -2243.91 16.82 -2193.62 16.81 C-2192.37 16.81 -2191.12 16.81 -2189.82 16.81 C-2140.59 16.79 -2091.39 17.51 -2042.19 19.31 C-2040.4 19.38 -2038.62 19.44 -2036.83 19.51 C-1952.43 22.59 -1868.25 28.73 -1617.34 52.66 C-1429.5 71.49 -1429.5 71.49 -1116.25 90.12 C-1115.05 90.16 -1113.86 90.2 -1112.63 90.24 C-1105.19 90.48 -1097.76 90.69 -1090.32 90.89 C-1087.34 90.96 -1084.36 91.05 -1081.38 91.13 C-1043.42 92.21 -1005.46 92.19 -967.48 92.19 C-961.33 92.19 -955.17 92.19 -949.02 92.21 C-910.51 92.28 -872.03 92.08 -833.54 91.07 C-832.73 91.05 -831.92 91.03 -831.1 91.01 C-801.67 90.23 -772.24 89.28 -742.83 87.9 C-742.1 87.87 -741.36 87.83 -740.61 87.8 C-650.99 83.63 -561.47 77.16 -80.9 12.39 C-61.86 8.81 -42.82 5.38 -23.66 2.5 C-23.23 2.43 -23.23 2.43 -21.05 2.11 C-18.64 1.74 -16.22 1.38 -13.81 1.03 C-13.1 0.93 -12.4 0.82 -11.67 0.71 C-7.74 0.15 -3.96 -0.04 0 0 Z " fill="#6A97CD" transform="translate(3963,1253)"/>
<path d="M0 0 C12.36 5.07 22.92 20.44 31.5 30.39 C33.48 32.66 35.51 34.88 37.54 37.11 C40.66 40.57 43.67 44.1 46.6 47.73 C49.67 51.54 52.85 55.2 56.16 58.8 C60.18 63.16 63.95 67.67 67.68 72.28 C70.61 75.84 73.63 79.32 76.66 82.8 C81.18 87.98 85.59 93.22 89.92 98.55 C92.46 101.67 95.06 104.73 97.66 107.8 C102.57 113.57 107.38 119.42 112.16 125.3 C119.19 133.91 126.26 142.49 133.33 151.08 C136.86 155.36 140.38 159.64 143.91 163.92 C146.83 167.47 149.76 171.03 152.7 174.58 C155.62 178.12 158.53 181.67 161.44 185.21 C163.14 187.27 164.84 189.31 166.54 191.36 C173.16 199.35 179.25 207.53 185.02 216.16 C187.16 219.3 187.16 219.3 189.16 221.3 C188.84 220.49 188.51 219.68 188.18 218.84 C186.96 214.61 186.89 210.9 186.92 206.53 C186.92 205.66 186.92 204.79 186.91 203.89 C186.91 200.98 186.92 198.07 186.93 195.15 C186.93 193.07 186.93 190.98 186.93 188.89 C186.93 183.22 186.94 177.55 186.96 171.88 C186.97 165.95 186.97 160.03 186.97 154.1 C186.98 142.88 187 131.66 187.02 120.44 C187.04 107.67 187.05 94.9 187.06 82.12 C187.08 55.85 187.12 29.57 187.16 3.3 C196.73 3.3 206.3 3.3 216.16 3.3 C216.16 97.35 216.16 191.4 216.16 288.3 C208.28 287.17 208.28 287.17 205.44 283.98 C205.13 283.64 205.13 283.64 203.55 281.91 C202.93 281.19 202.3 280.47 201.66 279.73 C201.03 279.04 200.41 278.35 199.77 277.64 C197.88 275.54 196.02 273.42 194.16 271.3 C193.54 270.59 192.92 269.88 192.29 269.15 C191.1 267.8 189.91 266.44 188.73 265.08 C186.77 262.86 184.78 260.67 182.79 258.48 C179.69 255.06 176.74 251.58 173.85 247.98 C170.44 243.76 166.87 239.76 163.16 235.8 C158.76 231.09 154.6 226.26 150.56 221.23 C147.7 217.74 144.75 214.33 141.79 210.92 C136.3 204.63 130.89 198.28 125.51 191.9 C124.13 190.26 122.74 188.62 121.35 186.98 C116.33 181.07 111.37 175.12 106.47 169.11 C103.9 165.98 101.28 162.89 98.66 159.8 C94.61 155.03 90.62 150.22 86.66 145.37 C79.29 136.33 71.9 127.31 64.35 118.42 C59.55 112.77 54.83 107.06 50.16 101.3 C49.72 100.75 49.27 100.21 48.81 99.65 C40.51 89.49 32.75 79 25.16 68.3 C25.16 71.3 25.16 71.3 26.16 73.3 C26.26 76.08 26.29 78.84 26.28 81.62 C26.28 82.5 26.28 83.37 26.28 84.26 C26.28 87.2 26.28 90.14 26.27 93.08 C26.27 95.18 26.27 97.27 26.27 99.37 C26.27 105.09 26.27 110.8 26.26 116.51 C26.26 122.48 26.25 128.44 26.25 134.4 C26.25 145.71 26.24 157.01 26.23 168.31 C26.22 181.17 26.22 194.03 26.21 206.9 C26.2 233.36 26.18 259.83 26.16 286.3 C22.29 286.38 18.41 286.44 14.54 286.48 C13.99 286.5 13.99 286.5 11.22 286.56 C5.46 286.61 1.11 286.65 -3.84 283.3 C-4.84 282.3 -4.84 282.3 -4.96 280.36 C-4.96 279.51 -4.96 278.65 -4.96 277.77 C-4.96 276.79 -4.97 275.8 -4.97 274.79 C-4.97 273.69 -4.96 272.6 -4.96 271.47 C-4.96 270.32 -4.96 269.17 -4.96 267.98 C-4.96 264.77 -4.96 261.55 -4.96 258.34 C-4.95 254.88 -4.95 251.42 -4.95 247.96 C-4.95 241.96 -4.95 235.96 -4.95 229.97 C-4.94 221.29 -4.93 212.62 -4.93 203.95 C-4.93 189.88 -4.92 175.81 -4.92 161.74 C-4.91 148.07 -4.9 134.4 -4.89 120.73 C-4.89 119.88 -4.89 119.04 -4.89 118.17 C-4.89 113.95 -4.89 109.73 -4.89 105.5 C-4.88 70.43 -4.86 35.36 -4.84 0.3 C-2.84 -0.7 -2.84 -0.7 0 0 Z " fill="#4566AC" transform="translate(1661.83984375,895.703125)"/>
<path d="M0 0 C0.38 0 0.38 0 2.32 0.01 C14.02 0.06 25.36 0.46 36.75 3.31 C37.55 3.51 38.36 3.71 39.19 3.91 C62.16 9.8 81.58 19.8 97.75 37.31 C96.12 41.48 93.07 44.25 89.94 47.31 C89.68 47.57 89.68 47.57 88.36 48.89 C85.3 51.91 82.16 54.69 78.75 57.31 C75.01 55.99 72.34 54.35 69.25 51.88 C43.53 32.88 14.51 26.91 -16.99 31.13 C-45.93 35.72 -73.31 48.86 -91.38 72.6 C-110.67 100.65 -117.86 135.13 -112.12 168.74 C-108.33 187.46 -100.7 204.72 -88.25 219.31 C-87.61 220.1 -86.97 220.89 -86.3 221.7 C-66.83 244.62 -36.95 257.79 -7.25 260.31 C21.13 261.74 49.41 256.68 73.86 241.45 C75.75 240.31 75.75 240.31 77.6 239.45 C79.78 238.28 81.17 237.24 82.75 235.31 C83.8 231.08 83.7 226.92 83.65 222.57 C83.66 222.03 83.66 222.03 83.69 219.25 C83.73 215.17 83.7 211.08 83.69 207 C83.71 197.86 83.73 188.73 83.75 179.31 C56.03 179.31 28.31 179.31 -0.25 179.31 C-0.25 170.07 -0.25 160.83 -0.25 151.31 C37.04 151.31 74.33 151.31 112.75 151.31 C113 167.61 113.24 183.9 113.5 200.69 C113.55 203.25 113.55 203.25 113.83 216.23 C113.89 222.53 113.89 222.53 113.9 225.49 C113.91 227.54 113.96 229.59 114.02 231.64 C114.53 249.82 114.53 249.82 110.22 254.8 C107.35 257.47 104.17 259.4 100.75 261.31 C98.66 262.68 96.58 264.06 94.5 265.44 C92.26 266.75 90.01 268.04 87.75 269.31 C87.16 269.64 86.57 269.98 85.96 270.32 C64.65 282.09 39.52 289.38 15.11 289.52 C14.3 289.52 13.49 289.53 12.65 289.53 C10.94 289.54 9.24 289.55 7.53 289.55 C4.98 289.56 2.44 289.59 -0.11 289.62 C-15.37 289.72 -30.28 287.96 -44.94 283.56 C-45.81 283.31 -46.68 283.05 -47.58 282.78 C-65.52 277.32 -83.13 268.77 -97.25 256.31 C-98.06 255.63 -98.86 254.94 -99.69 254.23 C-127.28 230.23 -144.51 195.9 -147.25 159.31 C-148.98 115.21 -138.68 75.31 -108.25 42.31 C-107.56 41.55 -106.88 40.8 -106.17 40.02 C-96.18 29.5 -84.09 21.85 -71.25 15.31 C-70.62 14.99 -70 14.67 -69.35 14.34 C-61.08 10.2 -52.62 7.37 -43.69 5 C-42.78 4.76 -41.87 4.51 -40.93 4.26 C-27.35 0.85 -13.93 -0.07 0 0 Z " fill="#4566AC" transform="translate(1206.25,894.6875)"/>
<path d="M0 0 C0.73 0.66 1.46 1.32 2.21 2 C19.4 18.34 28.6 42.61 29.34 66.03 C29.68 94.64 25.53 123.23 5 145 C-1.05 150.8 -7.93 154.87 -15.29 158.77 C-19.67 161.11 -23.28 163.7 -27 167 C-26.09 171.41 -23.75 174.57 -21.19 178.19 C-20.7 178.89 -20.21 179.59 -19.7 180.31 C-18.14 182.55 -16.57 184.77 -15 187 C-14.01 188.41 -13.02 189.82 -12.02 191.23 C-9.53 194.78 -7.02 198.32 -4.52 201.86 C-2.01 205.4 0.5 208.95 3 212.5 C3.99 213.91 4.99 215.32 5.98 216.73 C8.04 219.64 10.09 222.55 12.14 225.46 C13.18 226.93 14.21 228.4 15.25 229.88 C15.75 230.58 16.24 231.29 16.75 232.01 C20.32 237.07 23.96 242.05 27.67 247 C29 249 29 249 29 251 C24.68 251.07 20.35 251.13 16.03 251.16 C14.56 251.18 13.09 251.2 11.62 251.23 C9.5 251.26 7.39 251.28 5.27 251.29 C4 251.31 2.72 251.32 1.41 251.34 C-2.95 250.9 -5.52 249.63 -8.46 246.38 C-8.86 245.8 -9.25 245.22 -9.66 244.62 C-10.11 243.96 -10.57 243.29 -11.04 242.61 C-11.53 241.89 -12.01 241.18 -12.5 240.44 C-13.56 238.89 -14.62 237.35 -15.69 235.81 C-15.96 235.41 -15.96 235.41 -17.34 233.4 C-20 229.56 -22.75 225.78 -25.5 222 C-29.71 216.2 -33.88 210.36 -38 204.5 C-42.35 198.32 -46.72 192.15 -51.12 186 C-51.68 185.22 -52.24 184.43 -52.81 183.62 C-53.33 182.9 -53.85 182.18 -54.38 181.44 C-54.84 180.8 -55.3 180.16 -55.77 179.5 C-57 178 -57 178 -59 177 C-62.83 176.77 -65.85 176.96 -69.55 178 C-74.72 179.34 -79.76 179.25 -85.06 179.2 C-85.52 179.19 -85.52 179.19 -87.84 179.19 C-91.23 179.18 -94.61 179.15 -98 179.12 C-105.59 179.08 -113.18 179.04 -121 179 C-121 202.76 -121 226.52 -121 251 C-131.23 251 -141.46 251 -152 251 C-152 158.6 -152 66.2 -152 -29 C-35.05 -32 -35.05 -32 0 0 Z M-121 -3 C-121 48.48 -121 99.96 -121 153 C-47.01 153 -47.01 153 -25 134 C-24.21 133.32 -23.42 132.64 -22.61 131.95 C-9.07 119.37 -1.44 100.96 -0.66 82.59 C-0.29 59.72 -4.97 38.24 -21 21 C-21.55 20.37 -22.1 19.74 -22.67 19.09 C-36.05 4.6 -54.39 1.23 -73 -3 C-88.84 -3 -104.68 -3 -121 -3 Z " fill="#8DC0E7" transform="translate(3390,928)"/>
<path d="M0 0 C11.22 0 22.44 0 34 0 C34 2.56 33.99 5.12 33.99 7.75 C33.97 31.88 33.98 56.01 34.03 80.14 C34.05 92.54 34.06 104.95 34.04 117.35 C34.03 128.17 34.04 138.99 34.07 149.8 C34.09 155.53 34.1 161.25 34.07 166.97 C34.05 172.37 34.07 177.77 34.1 183.17 C34.11 185.14 34.11 187.11 34.09 189.08 C33.98 202.06 35.9 211.52 42 223 C42.94 224.96 43.88 226.92 44.81 228.88 C52.43 242.32 64.81 249.6 79.19 253.96 C100.1 259.64 121.56 257.14 140.81 247.19 C154.03 239.46 164.19 228.78 169 214 C171.84 202.59 174.14 190.83 174.16 179.06 C174.16 178.29 174.17 177.52 174.17 176.73 C174.19 174.16 174.2 171.6 174.21 169.04 C174.21 167.2 174.22 165.35 174.24 163.51 C174.26 158.52 174.28 153.52 174.3 148.53 C174.33 143.31 174.35 138.08 174.38 132.86 C174.43 122.98 174.47 113.09 174.52 103.21 C174.57 91.95 174.62 80.7 174.68 69.44 C174.79 46.3 174.9 23.15 175 0 C185.23 0 195.46 0 206 0 C206.14 25.24 206.25 50.47 206.31 75.71 C206.34 87.43 206.38 99.15 206.45 110.87 C206.51 121.1 206.55 131.33 206.56 141.55 C206.57 146.96 206.59 152.36 206.63 157.77 C206.98 201.82 206.98 201.82 200 223 C199.74 223.79 199.48 224.58 199.21 225.39 C196.14 234.53 191.78 242.31 186 250 C185.48 250.7 184.96 251.41 184.43 252.13 C171.88 267.75 152.9 276.76 134 282 C132.86 282.32 131.73 282.64 130.56 282.97 C102.35 289.54 69.29 285.82 44.28 270.75 C24.57 258.23 11.33 241.45 5 219 C4.78 218.28 4.57 217.55 4.35 216.81 C-1.64 195.99 -0.65 174.64 -0.51 153.19 C-0.48 147.79 -0.47 142.39 -0.47 136.99 C-0.45 126.8 -0.41 116.61 -0.36 106.42 C-0.3 94.81 -0.28 83.19 -0.25 71.57 C-0.2 47.72 -0.11 23.86 0 0 Z " fill="#4566AC" transform="translate(1380,899)"/>
<path d="M0 0 C3.62 0.25 3.62 0.25 5.25 1.55 C7.54 4.39 8.66 7.78 9.97 11.15 C10.29 11.95 10.61 12.76 10.94 13.59 C11.64 15.34 12.34 17.09 13.03 18.85 C14.92 23.63 16.84 28.4 18.75 33.18 C18.95 33.67 18.95 33.67 19.96 36.19 C24.22 46.78 28.62 57.3 33.06 67.81 C33.46 68.75 33.85 69.69 34.26 70.65 C40.61 85.65 47.12 100.58 53.7 115.48 C60.22 130.26 66.59 145.11 72.94 159.97 C77.64 170.99 82.36 182 87.25 192.94 C95.81 212.18 103.7 231.74 111.62 251.25 C111.94 252.02 112.25 252.78 112.57 253.57 C114.32 257.89 116.05 262.22 117.75 266.56 C118.15 267.55 118.54 268.54 118.95 269.55 C121.12 275.19 122.22 280.21 122.62 286.25 C118.41 286.18 114.19 286.09 109.97 285.99 C108.54 285.95 107.1 285.93 105.67 285.9 C103.61 285.87 101.54 285.82 99.48 285.76 C98.24 285.74 97 285.71 95.72 285.68 C92.27 285.2 91.75 284.84 89.62 282.25 C88.62 280.31 88.62 280.31 87.72 278.09 C87.38 277.25 87.04 276.42 86.69 275.56 C86.52 275.11 86.52 275.11 85.61 272.84 C85.43 272.38 85.43 272.38 84.48 270.04 C83.7 268.09 82.91 266.14 82.14 264.19 C80.94 261.19 79.73 258.2 78.52 255.21 C77.76 253.32 77 251.42 76.24 249.53 C75.88 248.63 75.51 247.73 75.14 246.8 C74.97 246.39 74.97 246.39 74.14 244.28 C73.84 243.55 73.55 242.82 73.25 242.06 C72.62 240.25 72.62 240.25 72.62 238.25 C71.7 238.28 70.77 238.3 69.81 238.33 C40.59 239.18 11.37 239.53 -17.87 239.78 C-23.82 239.83 -29.77 239.89 -35.71 239.94 C-47.27 240.05 -58.82 240.15 -70.38 240.25 C-70.57 240.92 -70.77 241.6 -70.98 242.29 C-71.24 243.18 -71.51 244.07 -71.78 244.99 C-71.91 245.43 -71.91 245.43 -72.57 247.66 C-73.7 251.3 -75.06 254.83 -76.48 258.38 C-76.62 258.73 -76.62 258.73 -77.33 260.54 C-78.22 262.78 -79.11 265.01 -80 267.25 C-80.6 268.78 -81.21 270.3 -81.81 271.83 C-82.39 273.28 -82.96 274.74 -83.54 276.19 C-83.81 276.87 -84.08 277.55 -84.36 278.25 C-86.26 283.01 -86.26 283.01 -87.38 285.25 C-97.61 285.58 -107.84 285.91 -118.38 286.25 C-116.57 280.23 -114.89 274.74 -112.54 269.01 C-112.27 268.34 -112 267.68 -111.72 267 C-111.13 265.55 -110.54 264.11 -109.94 262.66 C-108.62 259.44 -107.3 256.21 -105.98 252.98 C-105.26 251.22 -104.54 249.45 -103.82 247.68 C-99.74 237.72 -95.72 227.74 -91.69 217.76 C-90.36 214.46 -89.03 211.16 -87.7 207.86 C-84.92 200.99 -82.15 194.12 -79.38 187.25 C-78.91 186.1 -78.45 184.95 -77.97 183.77 C-70.77 165.93 -63.57 148.09 -56.38 130.25 C-52.98 121.84 -49.59 113.42 -46.19 105.01 C-45.23 102.64 -44.28 100.26 -43.32 97.89 C-38.06 84.86 -32.8 71.84 -27.54 58.81 C-27.07 57.64 -26.59 56.46 -26.11 55.25 C-23.86 49.7 -21.62 44.15 -19.37 38.6 C-18.56 36.59 -17.75 34.58 -16.94 32.57 C-16.56 31.62 -16.17 30.67 -15.77 29.69 C-13.85 24.92 -11.93 20.15 -10.04 15.37 C-9.67 14.44 -9.3 13.5 -8.92 12.54 C-8.21 10.78 -7.52 9.01 -6.82 7.24 C-4.07 0.3 -4.07 0.3 0 0 Z M0.62 58.25 C-3.44 67.82 -7.22 77.48 -10.94 87.19 C-11.1 87.6 -11.1 87.6 -11.9 89.68 C-18.15 105.96 -24.31 122.28 -30.45 138.6 C-37.56 157.48 -44.74 176.32 -51.99 195.14 C-52.17 195.62 -52.17 195.62 -53.1 198.02 C-53.78 199.79 -54.46 201.56 -55.14 203.32 C-57.38 209.14 -57.38 209.14 -57.38 210.25 C-19.1 210.25 19.18 210.25 58.62 210.25 C54.56 198.63 50.5 187.09 46.06 175.62 C44.93 172.69 43.8 169.75 42.68 166.81 C42.37 166.01 42.06 165.21 41.74 164.39 C37.29 152.78 32.88 141.15 28.47 129.52 C27.75 127.63 27.04 125.74 26.32 123.85 C18.03 102.01 9.8 80.14 1.62 58.25 C1.29 58.25 0.97 58.25 0.62 58.25 Z " fill="#4566AC" transform="translate(917.375,895.75)"/>
<path d="M0 0 C2.64 0 5.28 0 8 0 C12.34 8.12 15.79 16.55 19.24 25.07 C21 29.42 22.78 33.76 24.55 38.11 C24.92 39.01 25.28 39.91 25.66 40.83 C29.55 50.36 33.49 59.87 37.44 69.38 C38.15 71.09 38.86 72.81 39.58 74.53 C41.01 77.97 42.44 81.42 43.87 84.86 C47.37 93.3 50.87 101.75 54.38 110.19 C54.55 110.61 54.55 110.61 55.43 112.73 C63.5 132.2 71.55 151.69 79.59 171.17 C83.17 179.83 86.74 188.48 90.32 197.14 C91.49 199.99 92.67 202.83 93.85 205.68 C97.53 214.59 101.21 223.51 104.9 232.42 C106.62 236.59 108.34 240.76 110.07 244.93 C110.88 246.9 111.7 248.87 112.52 250.84 C115.02 256.89 117.52 262.94 120 269 C120.32 269.77 120.63 270.54 120.96 271.33 C121.82 273.45 122.68 275.57 123.54 277.69 C124.02 278.87 124.5 280.05 124.99 281.26 C126 284 126 284 126 286 C121.42 285.89 116.83 285.76 112.25 285.62 C110.95 285.59 109.65 285.56 108.3 285.53 C107.05 285.49 105.8 285.45 104.52 285.41 C103.36 285.38 102.21 285.35 101.02 285.32 C98.02 285 96.41 284.79 94 283 C92.46 280.53 92.46 280.53 91.01 277.43 C90.47 276.29 89.93 275.15 89.38 273.98 C88.82 272.76 88.25 271.54 87.69 270.31 C87.11 269.08 86.53 267.84 85.95 266.61 C84.81 264.18 83.67 261.75 82.54 259.32 C81.24 256.52 79.93 253.73 78.59 250.95 C74 241.29 74 241.29 74 239 C27.8 239.33 -18.4 239.66 -66 240 C-72.27 254.19 -78.54 268.38 -85 283 C-88.98 284.99 -90.76 285.29 -95.08 285.41 C-96.24 285.45 -97.4 285.49 -98.59 285.53 C-99.2 285.55 -99.2 285.55 -102.25 285.62 C-103.47 285.66 -104.69 285.7 -105.95 285.74 C-108.97 285.84 -111.98 285.92 -115 286 C-110.15 272.82 -104.98 259.78 -99.75 246.75 C-99.53 246.2 -99.53 246.2 -98.43 243.44 C-92.05 227.53 -85.61 211.65 -79.1 195.79 C-72.49 179.68 -65.95 163.53 -59.44 147.38 C-58.95 146.16 -58.45 144.94 -57.95 143.68 C-56 138.85 -54.05 134.01 -52.1 129.17 C-47.83 118.57 -43.54 107.97 -39.25 97.38 C-38.57 95.71 -37.9 94.04 -37.22 92.37 C-36.21 89.86 -35.19 87.35 -34.18 84.84 C-10.99 27.58 -10.99 27.58 0 0 Z M4 58 C-7.09 86.69 -18.02 115.43 -28.91 144.2 C-31.55 151.18 -34.2 158.16 -36.85 165.14 C-38.43 169.29 -40.01 173.44 -41.58 177.59 C-42.31 179.5 -43.04 181.42 -43.77 183.33 C-44.77 185.96 -45.77 188.59 -46.76 191.22 C-47.05 191.97 -47.33 192.72 -47.63 193.49 C-49.69 198.95 -51.31 204.36 -53 210 C-15.05 210 22.9 210 62 210 C58.62 198.75 58.62 198.75 57.12 194.79 C56.79 193.89 56.45 192.99 56.1 192.06 C55.73 191.11 55.37 190.17 55 189.19 C54.61 188.16 54.22 187.14 53.82 186.08 C52.55 182.72 51.28 179.36 50 176 C49.1 173.63 48.21 171.27 47.31 168.9 C45 162.79 42.68 156.68 40.36 150.58 C38.64 146.05 36.92 141.52 35.2 136.98 C25.21 110.63 15.15 84.3 5 58 C4.67 58 4.34 58 4 58 Z " fill="#4566AC" transform="translate(2046,896)"/>
<path d="M0 0 C6.36 5.97 13.64 12.91 14.12 22.06 C11.54 28.16 4.46 31.73 -0.88 35.07 C-3.88 36.06 -3.88 36.06 -6.96 34.99 C-9.7 33.18 -12.09 31.35 -14.5 29.12 C-15.37 28.33 -16.24 27.54 -17.14 26.72 C-18.99 24.92 -20.78 23.06 -22.52 21.16 C-39.32 2.71 -65.42 -5.08 -89.83 -6.22 C-119.39 -7.03 -148.84 1.9 -170.88 22.06 C-171.79 22.88 -172.7 23.7 -173.64 24.55 C-194.98 44.69 -207.23 75.07 -208.08 104.21 C-208.56 138.48 -199.38 169.76 -175.41 194.88 C-170.03 200.34 -164.46 205.12 -157.88 209.06 C-157.29 209.41 -156.71 209.77 -156.11 210.13 C-137.14 221.37 -116.69 226.45 -94.69 226.38 C-92.58 226.38 -90.46 226.4 -88.34 226.42 C-60.61 226.55 -38.12 215.32 -17.88 197.06 C-16.84 196.15 -15.8 195.23 -14.76 194.32 C-10.41 190.44 -6.42 186.7 -2.88 182.06 C2.68 182.95 6.68 185.44 11.44 188.31 C12.27 188.79 13.11 189.27 13.97 189.76 C14.76 190.24 15.55 190.71 16.36 191.2 C16.72 191.42 16.72 191.42 18.55 192.5 C20.12 194.06 20.12 194.06 20.5 196.55 C19.93 200.4 17.48 202.71 14.94 205.5 C13.96 206.6 12.99 207.71 12.02 208.81 C11.53 209.35 11.05 209.89 10.55 210.45 C9.18 212 7.87 213.59 6.57 215.21 C-13.84 239.07 -48.04 250.68 -78.35 253.87 C-118.42 256.98 -159.62 247.83 -190.81 221.5 C-192.86 219.72 -194.87 217.9 -196.88 216.06 C-197.68 215.32 -198.49 214.59 -199.33 213.82 C-217.25 196.69 -229.28 174.16 -235.69 150.38 C-235.88 149.65 -236.08 148.93 -236.28 148.18 C-239.3 136.19 -240.24 124.21 -240.19 111.88 C-240.19 111.54 -240.19 111.54 -240.18 109.83 C-240 74.79 -228.74 41.83 -205.88 15.06 C-205.54 14.66 -205.54 14.66 -203.83 12.61 C-180.41 -14.57 -145.97 -29.41 -110.67 -32.74 C-69.96 -35.63 -31.27 -27.07 0 0 Z " fill="#8DC0E7" transform="translate(2670.875,928.9375)"/>
<path d="M0 0 C7.44 5.86 13.84 12.82 20 20 C20.61 20.66 21.22 21.33 21.85 22.01 C23 24 23 24 22.94 26.53 C20.53 32.88 11.94 37.07 6.13 40.11 C2.83 41.49 0.5 41.67 -3 41 C-5.68 38.92 -7.53 36.65 -9.51 33.91 C-17.8 22.61 -28.38 17.3 -42 14.75 C-58.18 12.44 -72.43 15.3 -86.25 24.06 C-93.55 30.7 -96.42 41.5 -97 51 C-97.11 63.88 -92.94 73.7 -84.14 82.96 C-69.17 97.22 -48.15 104.86 -29.66 113.57 C-1.39 126.9 25.02 140.19 37 171 C43.18 190.56 42.97 212.42 34.45 231.26 C32.03 235.83 29.18 239.93 26 244 C25.47 244.7 24.93 245.4 24.38 246.12 C10.94 262.65 -9.98 269.73 -30.18 273.61 C-62.98 276.96 -94.86 271.75 -121 250.52 C-131.57 241.64 -141.22 230.61 -145 217 C-145 215.68 -145 214.36 -145 213 C-137.41 209.7 -129.82 206.4 -122 203 C-118.48 206.52 -116.02 209.21 -113.31 213.19 C-100.87 230.5 -84.01 240.24 -63.32 244.56 C-46.22 246.83 -26.75 245.83 -12 236 C-1.61 228.05 5.22 218.92 8 206 C9.6 191.67 5.63 179.41 -3 168 C-15.3 152.75 -36.79 143.67 -54.4 136.11 C-94.52 118.84 -94.52 118.84 -106 108 C-106.76 107.33 -107.52 106.66 -108.3 105.96 C-120 95.12 -127.26 80.45 -128.14 64.44 C-128.82 43.96 -127.69 25.87 -113.62 9.75 C-112.1 8.15 -110.56 6.57 -109 5 C-108.41 4.37 -107.82 3.75 -107.21 3.1 C-97.3 -6.56 -83.26 -11.23 -70 -14 C-69.09 -14.19 -68.19 -14.38 -67.25 -14.58 C-43.91 -17.58 -19.56 -13.52 0 0 Z " fill="#4566AC" transform="translate(2346,910)"/>
<path d="M0 0 C2.42 2.18 3.67 4.1 4.91 7.1 C5.25 7.93 5.6 8.76 5.96 9.61 C6.32 10.52 6.69 11.42 7.07 12.35 C7.46 13.3 7.86 14.25 8.26 15.23 C9.56 18.36 10.84 21.49 12.12 24.62 C13.03 26.82 13.94 29.01 14.84 31.2 C16.69 35.67 18.53 40.14 20.37 44.61 C23.72 52.76 27.1 60.9 30.48 69.05 C31.51 71.53 32.54 74.01 33.57 76.49 C38.97 89.52 44.39 102.54 49.81 115.56 C50.23 116.56 50.65 117.56 51.08 118.59 C54.05 125.73 57.02 132.86 60 140 C63.4 148.15 66.79 156.29 70.19 164.44 C70.6 165.44 71.02 166.44 71.45 167.47 C77.83 182.78 84.19 198.09 90.53 213.41 C94.49 222.95 98.45 232.48 102.43 242.01 C103.36 244.23 104.28 246.44 105.21 248.65 C107 252.93 108.79 257.21 110.58 261.49 C111.39 263.45 112.21 265.4 113.03 267.36 C113.4 268.24 113.77 269.13 114.16 270.05 C115.94 274.32 117.61 278.58 119 283 C115.2 283.05 111.4 283.06 107.6 283.02 C104.59 282.99 101.6 283.06 98.59 283.2 C94.48 283.31 90.98 283.1 87 282 C84.03 279.16 82.91 276.04 81.69 272.16 C80.57 268.66 79.27 265.23 78 261.78 C77.31 259.89 76.63 258 75.98 256.09 C70.58 240.58 70.58 240.58 67 237 C65.18 236.9 63.35 236.88 61.53 236.88 C60.34 236.88 59.15 236.88 57.93 236.88 C56.61 236.88 55.3 236.88 53.94 236.89 C52.55 236.89 51.16 236.89 49.78 236.89 C45.99 236.89 42.21 236.89 38.43 236.9 C34.48 236.9 30.53 236.91 26.58 236.91 C19.1 236.91 11.61 236.92 4.13 236.93 C-4.39 236.94 -12.91 236.94 -21.42 236.95 C-38.95 236.96 -56.47 236.98 -74 237 C-74.2 237.67 -74.4 238.35 -74.6 239.04 C-74.87 239.93 -75.13 240.82 -75.41 241.74 C-75.54 242.18 -75.54 242.18 -76.2 244.4 C-77.34 248.11 -78.7 251.72 -80.1 255.34 C-80.38 256.08 -80.67 256.82 -80.96 257.57 C-81.54 259.11 -82.13 260.64 -82.73 262.17 C-83.63 264.52 -84.54 266.87 -85.44 269.23 C-86.01 270.72 -86.59 272.22 -87.16 273.72 C-87.43 274.42 -87.7 275.12 -87.98 275.85 C-89.88 280.76 -89.88 280.76 -91 283 C-101.23 283 -111.46 283 -122 283 C-120.02 277.07 -118 271.34 -115.59 265.59 C-115.26 264.81 -114.93 264.02 -114.6 263.21 C-113.53 260.64 -112.45 258.07 -111.38 255.5 C-110.61 253.67 -109.85 251.85 -109.09 250.02 C-107.51 246.22 -105.93 242.43 -104.35 238.64 C-101.07 230.78 -97.81 222.9 -94.55 215.03 C-92.78 210.77 -91.02 206.51 -89.25 202.25 C-88.54 200.54 -87.83 198.83 -87.12 197.12 C-48.88 104.88 -48.88 104.88 -47.81 102.31 C-47.1 100.6 -46.4 98.89 -45.69 97.19 C-43.92 92.93 -42.16 88.67 -40.39 84.41 C-37.51 77.48 -34.64 70.54 -31.76 63.6 C-31.39 62.7 -31.02 61.8 -30.63 60.88 C-29.88 59.07 -29.13 57.26 -28.38 55.44 C-26.56 51.05 -24.74 46.65 -22.9 42.26 C-19.86 34.94 -16.83 27.62 -13.96 20.23 C-13.73 19.67 -13.73 19.67 -12.61 16.82 C-11.82 14.82 -11.05 12.81 -10.3 10.8 C-7.95 4.87 -5.89 2.55 0 0 Z M-3 56 C-5.85 61.5 -8.26 66.99 -10.41 72.8 C-10.72 73.64 -11.04 74.49 -11.37 75.36 C-12.05 77.19 -12.74 79.02 -13.42 80.86 C-15.31 85.91 -17.2 90.96 -19.1 96 C-19.3 96.53 -19.3 96.53 -20.31 99.22 C-24.77 111.07 -29.32 122.88 -33.88 134.69 C-40.44 151.72 -46.98 168.76 -53.47 185.82 C-54.32 188.05 -55.17 190.29 -56.02 192.53 C-57.2 195.62 -58.37 198.71 -59.55 201.79 C-59.9 202.72 -60.25 203.64 -60.61 204.59 C-60.93 205.43 -61.25 206.26 -61.57 207.12 C-61.85 207.85 -62.13 208.58 -62.41 209.33 C-63 211 -63 211 -63 212 C-23.4 212 16.2 212 57 212 C53.63 200.75 53.63 200.75 52.16 196.96 C51.82 196.1 51.49 195.23 51.15 194.34 C50.79 193.43 50.44 192.52 50.07 191.58 C49.69 190.59 49.31 189.6 48.91 188.58 C48.08 186.44 47.26 184.3 46.43 182.17 C44.17 176.36 41.93 170.54 39.68 164.73 C39.22 163.52 38.75 162.31 38.27 161.06 C33.2 147.95 28.19 134.82 23.19 121.69 C14.83 99.78 6.44 77.88 -2 56 C-2.33 56 -2.66 56 -3 56 Z " fill="#8DC0E7" transform="translate(3066,896)"/>
<path d="M0 0 C1.34 0.65 2.67 1.32 4 2 C4.43 2.22 4.43 2.22 6.59 3.31 C9.47 5.33 10.22 6.82 11.55 10.05 C11.99 11.1 12.44 12.15 12.89 13.23 C13.36 14.39 13.83 15.55 14.31 16.75 C14.83 17.99 15.35 19.24 15.86 20.48 C17.29 23.91 18.7 27.35 20.1 30.8 C21.64 34.57 23.19 38.33 24.74 42.09 C27.09 47.79 29.43 53.5 31.76 59.21 C36.25 70.18 40.77 81.12 45.31 92.06 C46.74 95.49 48.16 98.92 49.58 102.35 C49.94 103.21 50.3 104.07 50.67 104.96 C54.96 115.3 59.23 125.65 63.5 136 C69.49 150.51 75.49 165.01 81.5 179.5 C88.38 196.08 95.24 212.66 102.08 229.25 C102.87 231.15 103.65 233.05 104.44 234.95 C104.82 235.88 105.2 236.81 105.6 237.77 C107.81 243.13 110.04 248.5 112.27 253.85 C113.6 257.05 114.93 260.25 116.26 263.45 C116.87 264.93 117.49 266.4 118.1 267.88 C118.94 269.88 119.78 271.88 120.61 273.89 C121.07 275 121.54 276.12 122.02 277.27 C123 280 123 280 123 283 C113.1 283 103.2 283 93 283 C88.5 274 88.5 274 87.26 270.7 C86.98 269.96 86.7 269.21 86.41 268.45 C86.13 267.68 85.84 266.92 85.55 266.12 C85.24 265.32 84.94 264.51 84.62 263.67 C83.66 261.12 82.71 258.56 81.75 256 C81.09 254.25 80.44 252.51 79.78 250.76 C78.18 246.51 76.59 242.26 75 238 C61.83 237.83 48.67 237.66 35.5 237.5 C34.53 237.49 33.55 237.48 32.55 237.46 C-0.64 237.06 -33.81 236.86 -67 237 C-67.15 237.38 -67.15 237.38 -67.92 239.32 C-69.1 242.24 -70.36 245.12 -71.62 248 C-74.74 255.17 -77.5 262.47 -80.2 269.8 C-83.74 279.3 -83.74 279.3 -86 282 C-88.57 282.71 -88.57 282.71 -91.69 282.81 C-92.83 282.86 -93.97 282.91 -95.15 282.95 C-101.77 283.03 -108.38 283.08 -115 283 C-109.33 267.81 -103.31 252.78 -97.06 237.81 C-90.85 222.91 -84.72 207.98 -78.69 193 C-72.08 176.61 -65.44 160.23 -58.75 143.88 C-52.98 129.76 -47.22 115.64 -41.5 101.5 C-27.78 67.62 -13.95 33.78 0 0 Z M5 56 C-1.24 71.02 -7.25 86.12 -13.06 101.31 C-18.61 115.81 -24.21 130.29 -29.88 144.75 C-30.25 145.7 -30.62 146.65 -31 147.63 C-35.29 158.57 -39.59 169.51 -43.92 180.44 C-44.32 181.45 -44.72 182.45 -45.13 183.49 C-47.04 188.31 -48.95 193.14 -50.87 197.96 C-51.55 199.68 -52.23 201.4 -52.91 203.11 C-53.07 203.51 -53.07 203.51 -53.87 205.51 C-56 210.89 -56 210.89 -56 212 C-16.73 212 22.54 212 63 212 C62.03 204.23 60.17 197.6 57.69 190.25 C57.58 189.92 57.58 189.92 57.02 188.26 C52.16 173.82 46.24 159.9 40 146 C39.36 144.57 38.72 143.15 38.08 141.72 C37.75 140.99 37.42 140.25 37.08 139.49 C8.97 76.77 8.97 76.77 6 56 C5.67 56 5.34 56 5 56 Z " fill="#8DC0E7" transform="translate(3575,896)"/>
<path d="M0 0 C0.53 0.19 0.53 0.19 3.24 1.13 C18.98 7.17 31.84 17.17 40 32 C41.01 35.37 40.89 36.49 40 40 C36.5 43.23 32.61 45.49 28.44 47.75 C27.32 48.36 26.21 48.98 25.06 49.61 C22 51 22 51 18 51 C16.61 49.31 16.61 49.31 15.31 47 C7.54 34.74 -5.74 27.63 -19.56 24 C-35.43 20.98 -50.49 22.97 -64 32 C-72.29 38.25 -76.34 47.87 -77.84 57.98 C-78.45 69.76 -75.68 80.16 -68.5 89.5 C-51.58 107.51 -25.96 116.88 -3.68 126.59 C8.37 131.88 20.11 138.11 30.38 146.44 C30.95 146.9 31.52 147.36 32.11 147.83 C47.03 160.11 55.66 175.97 59 195 C60.46 218.14 58.16 239.12 42.81 257.38 C25.61 275.08 0.65 282.91 -23.56 283.29 C-36.88 283.37 -49.15 282.54 -62 279 C-62.68 278.82 -63.36 278.64 -64.05 278.45 C-87.32 272.02 -108.49 256.87 -121 236 C-122.29 233 -123.17 230.17 -124 227 C-120.39 222.84 -115.97 220.44 -111.25 217.75 C-110.46 217.29 -109.66 216.83 -108.85 216.36 C-106.9 215.23 -104.95 214.11 -103 213 C-99.35 216.42 -96.4 220.04 -93.45 224.08 C-80.33 242 -63.83 251.09 -42.22 255.58 C-23.14 258.08 -3.34 255.75 12.53 244.15 C22.77 235.58 28.21 224.75 29.88 211.5 C30.58 198.53 26.29 186.41 18.31 176.19 C3.5 160.72 -17.91 152.47 -37.06 143.88 C-44.34 140.62 -51.58 137.29 -58.72 133.72 C-59.37 133.4 -60.02 133.08 -60.68 132.75 C-81.54 122.23 -97.51 107.92 -105.17 85.59 C-110.04 66.38 -108.03 45.23 -98.04 28.04 C-86.55 10.96 -69.72 1.65 -50 -3 C-33.86 -6.05 -15.51 -5.57 0 0 Z " fill="#8DC0E7" transform="translate(3854,900)"/>
<path d="M0 0 C10.89 0 21.78 0 33 0 C33 83.82 33 167.64 33 254 C76.89 254 120.78 254 166 254 C166 263.57 166 273.14 166 283 C111.22 283 56.44 283 0 283 C0 189.61 0 96.22 0 0 Z " fill="#4566AC" transform="translate(602,899)"/>
<path d="M0 0 C9.24 0 18.48 0 28 0 C28 83.82 28 167.64 28 254 C71.56 254 115.12 254 160 254 C160 262.58 160 271.16 160 280 C107.2 280 54.4 280 0 280 C0 187.6 0 95.2 0 0 Z " fill="#8DC0E7" transform="translate(2750,899)"/>
</svg>
